P3
4 2
255
178 178 178   178 178 110   179 110 178   111 178 179
110 111 178   110 178 111   178 110 111   110 110 111